REM DIRINDEX 1\2,1\3
REM DIRNAME folder01,folder02,folder03
TITLE ""
FILE "Disk1Track09.mp3" MP3
  TRACK 01 AUDIO
    TITLE "2:cjc052_0047"
    INDEX 01 00:00:00
  TRACK 02 AUDIO
    TITLE "2:cjc052_0048"
    INDEX 01 00:10:02
  TRACK 03 AUDIO
    TITLE "2:cjc052_0049"
    INDEX 01 00:22:60
  TRACK 04 AUDIO
    TITLE "0:"
    INDEX 01 00:33:48
